<?xml version="1.0" encoding="UTF-8" standalone="no"?>
<!-- Created with Inkscape (http://www.inkscape.org/) -->

<svg
   xmlns:dc="http://purl.org/dc/elements/1.1/"
   xmlns:cc="http://creativecommons.org/ns#"
   xmlns:rdf="http://www.w3.org/1999/02/22-rdf-syntax-ns#"
   xmlns:svg="http://www.w3.org/2000/svg"
   xmlns="http://www.w3.org/2000/svg"
   xmlns:sodipodi="http://sodipodi.sourceforge.net/DTD/sodipodi-0.dtd"
   xmlns:inkscape="http://www.inkscape.org/namespaces/inkscape"
   width="176.70959mm"
   height="123.59101mm"
   viewBox="0 0 176.70959 123.59101"
   version="1.1"
   id="svg8"
   inkscape:version="0.92.4 (5da689c313, 2019-01-14)"
   sodipodi:docname="Error.svg">
  <defs
     id="defs2">
    <clipPath
       id="clipPath833"
       clipPathUnits="userSpaceOnUse">
      <path
         inkscape:connector-curvature="0"
         id="path831"
         d="M 0,293.518 H 484.668 V -0.002 H 0 Z" />
    </clipPath>
    <clipPath
       id="clipPath879"
       clipPathUnits="userSpaceOnUse">
      <path
         inkscape:connector-curvature="0"
         id="path877"
         d="M 0,293.518 H 484.668 V -0.002 H 0 Z" />
    </clipPath>
    <clipPath
       id="clipPath885"
       clipPathUnits="userSpaceOnUse">
      <path
         inkscape:connector-curvature="0"
         id="path883"
         d="M 58.16,270.037 H 431.355 V 41.092 H 58.16 Z" />
    </clipPath>
    <clipPath
       id="clipPath897"
       clipPathUnits="userSpaceOnUse">
      <path
         inkscape:connector-curvature="0"
         id="path895"
         d="M 0,293.518 H 484.668 V -0.002 H 0 Z" />
    </clipPath>
    <clipPath
       id="clipPath907"
       clipPathUnits="userSpaceOnUse">
      <path
         inkscape:connector-curvature="0"
         id="path905"
         d="M 0,293.518 H 484.668 V -0.002 H 0 Z" />
    </clipPath>
    <clipPath
       id="clipPath913"
       clipPathUnits="userSpaceOnUse">
      <path
         inkscape:connector-curvature="0"
         id="path911"
         d="m 300.063,89.053 h 91 v -25 h -91 z" />
    </clipPath>
    <clipPath
       id="clipPath933"
       clipPathUnits="userSpaceOnUse">
      <path
         inkscape:connector-curvature="0"
         id="path931"
         d="M 0,293.518 H 484.668 V -0.002 H 0 Z" />
    </clipPath>
    <clipPath
       id="clipPath1018"
       clipPathUnits="userSpaceOnUse">
      <path
         inkscape:connector-curvature="0"
         id="path1016"
         d="M 0,286.677 H 458.801 V 0.001 H 0 Z" />
    </clipPath>
    <clipPath
       id="clipPath1064"
       clipPathUnits="userSpaceOnUse">
      <path
         inkscape:connector-curvature="0"
         id="path1062"
         d="M 0,286.677 H 458.801 V 0.001 H 0 Z" />
    </clipPath>
    <clipPath
       id="clipPath1070"
       clipPathUnits="userSpaceOnUse">
      <path
         inkscape:connector-curvature="0"
         id="path1068"
         d="M 55.055,263.743 H 408.332 V 40.134 H 55.055 Z" />
    </clipPath>
    <clipPath
       id="clipPath1080"
       clipPathUnits="userSpaceOnUse">
      <path
         inkscape:connector-curvature="0"
         id="path1078"
         d="M 0,286.677 H 458.801 V 0.001 H 0 Z" />
    </clipPath>
    <clipPath
       id="clipPath1174"
       clipPathUnits="userSpaceOnUse">
      <path
         inkscape:connector-curvature="0"
         id="path1172"
         d="M 0,286.677 H 458.801 V 0.001 H 0 Z" />
    </clipPath>
    <clipPath
       id="clipPath1180"
       clipPathUnits="userSpaceOnUse">
      <path
         inkscape:connector-curvature="0"
         id="path1178"
         d="m 302.207,251.29 h 91 v -25 h -91 z" />
    </clipPath>
    <clipPath
       id="clipPath1202"
       clipPathUnits="userSpaceOnUse">
      <path
         inkscape:connector-curvature="0"
         id="path1200"
         d="M 0,286.677 H 458.801 V 0.001 H 0 Z" />
    </clipPath>
    <clipPath
       id="clipPath1329"
       clipPathUnits="userSpaceOnUse">
      <path
         inkscape:connector-curvature="0"
         id="path1327"
         d="M 0,331.587 H 468.332 V 0.001 H 0 Z" />
    </clipPath>
    <clipPath
       id="clipPath1377"
       clipPathUnits="userSpaceOnUse">
      <path
         inkscape:connector-curvature="0"
         id="path1375"
         d="M 0,331.587 H 468.332 V 0.001 H 0 Z" />
    </clipPath>
    <clipPath
       id="clipPath1383"
       clipPathUnits="userSpaceOnUse">
      <path
         inkscape:connector-curvature="0"
         id="path1381"
         d="M 56.199,305.059 H 416.816 V 46.422 H 56.199 Z" />
    </clipPath>
    <clipPath
       id="clipPath1395"
       clipPathUnits="userSpaceOnUse">
      <path
         inkscape:connector-curvature="0"
         id="path1393"
         d="M 0,331.587 H 468.332 V 0.001 H 0 Z" />
    </clipPath>
    <clipPath
       id="clipPath1405"
       clipPathUnits="userSpaceOnUse">
      <path
         inkscape:connector-curvature="0"
         id="path1403"
         d="M 0,331.587 H 468.332 V 0.001 H 0 Z" />
    </clipPath>
    <clipPath
       id="clipPath1411"
       clipPathUnits="userSpaceOnUse">
      <path
         inkscape:connector-curvature="0"
         id="path1409"
         d="m 290.031,100.93 h 91 v -25 h -91 z" />
    </clipPath>
    <clipPath
       id="clipPath1431"
       clipPathUnits="userSpaceOnUse">
      <path
         inkscape:connector-curvature="0"
         id="path1429"
         d="M 0,331.587 H 468.332 V 0.001 H 0 Z" />
    </clipPath>
    <clipPath
       id="clipPath1517"
       clipPathUnits="userSpaceOnUse">
      <path
         inkscape:connector-curvature="0"
         id="path1515"
         d="M 0,323.32 H 486.031 V 0 H 0 Z" />
    </clipPath>
    <clipPath
       id="clipPath1559"
       clipPathUnits="userSpaceOnUse">
      <path
         inkscape:connector-curvature="0"
         id="path1557"
         d="M 0,323.32 H 486.031 V 0 H 0 Z" />
    </clipPath>
    <clipPath
       id="clipPath1565"
       clipPathUnits="userSpaceOnUse">
      <path
         inkscape:connector-curvature="0"
         id="path1563"
         d="M 58.324,297.453 H 432.566 V 45.265 H 58.324 Z" />
    </clipPath>
    <clipPath
       id="clipPath1577"
       clipPathUnits="userSpaceOnUse">
      <path
         inkscape:connector-curvature="0"
         id="path1575"
         d="M 0,323.32 H 486.031 V 0 H 0 Z" />
    </clipPath>
    <clipPath
       id="clipPath1587"
       clipPathUnits="userSpaceOnUse">
      <path
         inkscape:connector-curvature="0"
         id="path1585"
         d="M 0,323.32 H 486.031 V 0 H 0 Z" />
    </clipPath>
    <clipPath
       id="clipPath1593"
       clipPathUnits="userSpaceOnUse">
      <path
         inkscape:connector-curvature="0"
         id="path1591"
         d="m 300.898,98.351 h 91 v -25 h -91 z" />
    </clipPath>
    <clipPath
       id="clipPath1613"
       clipPathUnits="userSpaceOnUse">
      <path
         inkscape:connector-curvature="0"
         id="path1611"
         d="M 0,323.32 H 486.031 V 0 H 0 Z" />
    </clipPath>
    <clipPath
       id="clipPath1696"
       clipPathUnits="userSpaceOnUse">
      <path
         inkscape:connector-curvature="0"
         id="path1694"
         d="M 0,331.587 H 468.332 V 0.001 H 0 Z" />
    </clipPath>
    <clipPath
       id="clipPath1744"
       clipPathUnits="userSpaceOnUse">
      <path
         inkscape:connector-curvature="0"
         id="path1742"
         d="M 0,331.587 H 468.332 V 0.001 H 0 Z" />
    </clipPath>
    <clipPath
       id="clipPath1750"
       clipPathUnits="userSpaceOnUse">
      <path
         inkscape:connector-curvature="0"
         id="path1748"
         d="M 56.199,305.059 H 416.816 V 46.422 H 56.199 Z" />
    </clipPath>
    <clipPath
       id="clipPath1762"
       clipPathUnits="userSpaceOnUse">
      <path
         inkscape:connector-curvature="0"
         id="path1760"
         d="M 0,331.587 H 468.332 V 0.001 H 0 Z" />
    </clipPath>
    <clipPath
       id="clipPath1772"
       clipPathUnits="userSpaceOnUse">
      <path
         inkscape:connector-curvature="0"
         id="path1770"
         d="M 0,331.587 H 468.332 V 0.001 H 0 Z" />
    </clipPath>
    <clipPath
       id="clipPath1778"
       clipPathUnits="userSpaceOnUse">
      <path
         inkscape:connector-curvature="0"
         id="path1776"
         d="m 290.031,100.93 h 91 v -25 h -91 z" />
    </clipPath>
    <clipPath
       id="clipPath1798"
       clipPathUnits="userSpaceOnUse">
      <path
         inkscape:connector-curvature="0"
         id="path1796"
         d="M 0,331.587 H 468.332 V 0.001 H 0 Z" />
    </clipPath>
  </defs>
  <sodipodi:namedview
     id="base"
     pagecolor="#ffffff"
     bordercolor="#666666"
     borderopacity="1.0"
     inkscape:pageopacity="0.0"
     inkscape:pageshadow="2"
     inkscape:zoom="0.98994949"
     inkscape:cx="385.519"
     inkscape:cy="250.12579"
     inkscape:document-units="mm"
     inkscape:current-layer="layer1"
     showgrid="false"
     fit-margin-top="0"
     fit-margin-left="0"
     fit-margin-right="0"
     fit-margin-bottom="0"
     inkscape:window-width="1366"
     inkscape:window-height="705"
     inkscape:window-x="-8"
     inkscape:window-y="-8"
     inkscape:window-maximized="1" />
  <metadata
     id="metadata5">
    <rdf:RDF>
      <cc:Work
         rdf:about="">
        <dc:format>image/svg+xml</dc:format>
        <dc:type
           rdf:resource="http://purl.org/dc/dcmitype/StillImage" />
        <dc:title></dc:title>
      </cc:Work>
    </rdf:RDF>
  </metadata>
  <g
     inkscape:label="Capa 1"
     inkscape:groupmode="layer"
     id="layer1"
     transform="translate(220.64025,151.42284)">
    <g
       transform="matrix(0.19953722,0,0,-0.19953722,-218.69192,-28.819603)"
       inkscape:label="MG_h01_e01"
       id="g823">
      <g
         id="g825" />
      <g
         id="g827">
        <g
           clip-path="url(#clipPath833)"
           id="g829">
          <path
             inkscape:connector-curvature="0"
             id="path835"
             style="fill:#ffffff;fill-opacity:1;fill-rule:nonzero;stroke:none"
             d="M -38.773,293.518 H 445.895 V -0.002 H -38.773 Z" />
          <path
             inkscape:connector-curvature="0"
             id="path837"
             style="fill:none;stroke:#848284;stroke-width:1;stroke-linecap:round;stroke-linejoin:round;stroke-miterlimit:10;stroke-dasharray:none;stroke-opacity:1"
             d="M 58.16,270.037 H 431.355 V 41.092 H 58.16 Z" />
          <path
             inkscape:connector-curvature="0"
             id="path839"
             style="fill:none;stroke:#808080;stroke-width:0.40000001;stroke-linecap:round;stroke-linejoin:round;stroke-miterlimit:10;stroke-dasharray:none;stroke-opacity:1"
             d="M 58.16,41.092 H 431.355 M 58.16,79.248 H 431.355 M 58.16,117.408 H 431.355 M 58.16,155.565 H 431.355 M 58.16,193.721 H 431.355 M 58.16,231.877 H 431.355 M 58.16,270.037 h 373.195" />
          <path
             inkscape:connector-curvature="0"
             id="path841"
             style="fill:none;stroke:#808080;stroke-width:0.5;stroke-linecap:round;stroke-linejoin:round;stroke-miterlimit:10;stroke-dasharray:none;stroke-opacity:1"
             d="M 58.16,270.037 V 41.092 m 74.641,228.945 V 41.092 m 74.637,228.945 V 41.092 m 74.64,228.945 V 41.092 m 74.637,228.945 V 41.092 m 74.64,228.945 V 41.092" />
          <path
             inkscape:connector-curvature="0"
             id="path843"
             style="fill:none;stroke:#000000;stroke-width:1.10000002;stroke-linecap:round;stroke-linejoin:round;stroke-miterlimit:10;stroke-dasharray:none;stroke-opacity:1"
             d="M 58.16,41.092 H 431.355 M 58.16,36.541 v 4.551 m 74.641,-4.551 v 4.551 m 74.637,-4.551 v 4.551 m 74.64,-4.551 v 4.551 m 74.637,-4.551 v 4.551 m 74.64,-4.551 v 4.551" />
          <text
             id="text849"
             style="font-variant:normal;font-weight:normal;font-size:12px;font-family:Georgia;-inkscape-font-specification:Georgia;writing-mode:lr-tb;fill:#000000;fill-opacity:1;fill-rule:nonzero;stroke:none"
             transform="matrix(1,0,0,-1,48.929688,24.541215)">
            <tspan
               id="tspan845"
               sodipodi:role="line"
               y="0"
               x="0 7.3559999 10.584 74.940002 82.295998 85.524002 149.57031 156.92632 160.15431 224.17432 231.53032 234.75832 298.66016 306.01617 309.24417 374.28415 379.43216 382.66016">0,00,20,40,60,81,0</tspan>
            <tspan
               id="tspan847"
               y="14.949216"
               x="190.84767">X</tspan>
          </text>
          <path
             inkscape:connector-curvature="0"
             id="path851"
             style="fill:none;stroke:#000000;stroke-width:1.10000002;stroke-linecap:round;stroke-linejoin:round;stroke-miterlimit:10;stroke-dasharray:none;stroke-opacity:1"
             d="M 58.16,41.092 V 270.037 M 53.609,41.092 h 4.551 m -4.551,38.156 h 4.551 m -4.551,38.16 h 4.551 m -4.551,38.157 h 4.551 m -4.551,38.156 h 4.551 m -4.551,38.156 h 4.551 m -4.551,38.16 h 4.551" />
          <text
             id="text867"
             style="font-variant:normal;font-weight:normal;font-size:12px;font-family:Georgia;-inkscape-font-specification:Georgia;writing-mode:lr-tb;fill:#000000;fill-opacity:1;fill-rule:nonzero;stroke:none"
             transform="matrix(1,0,0,-1,31.210938,36.841997)">
            <tspan
               id="tspan853"
               sodipodi:role="line"
               y="0"
               x="0 7.3559999 10.584">0,0</tspan>
            <tspan
               id="tspan855"
               sodipodi:role="line"
               y="-38.156258"
               x="0.66406202 8.0200624 11.248062">0,2</tspan>
            <tspan
               id="tspan857"
               sodipodi:role="line"
               y="-76.316414"
               x="0.58593696 7.941937 11.169937">0,4</tspan>
            <tspan
               id="tspan859"
               sodipodi:role="line"
               y="-114.47266"
               x="0.57421821 7.9302182 11.158218">0,6</tspan>
            <tspan
               id="tspan861"
               sodipodi:role="line"
               y="-152.62891"
               x="0.2109374 7.5669374 10.794937">0,8</tspan>
            <tspan
               id="tspan863"
               sodipodi:role="line"
               y="-190.78514"
               x="2.2109413 7.3589416 10.586942">1,0</tspan>
            <tspan
               id="tspan865"
               sodipodi:role="line"
               y="-228.9453"
               x="2.8710973 8.0190973 11.247097">1,2</tspan>
          </text>
          <text
             id="text871"
             style="font-variant:normal;font-weight:normal;font-size:12px;font-family:Georgia;-inkscape-font-specification:Georgia;writing-mode:lr-tb;fill:#000000;fill-opacity:1;fill-rule:nonzero;stroke:none"
             transform="matrix(0,1,1,0,23.207031,142.59981)">
            <tspan
               id="tspan869"
               sodipodi:role="line"
               y="0"
               x="0 6.9000001 11.4 17.448">u(x)</tspan>
          </text>
        </g>
      </g>
      <g
         id="g873">
        <g
           clip-path="url(#clipPath879)"
           id="g875">
          <g
             clip-path="url(#clipPath885)"
             id="g881">
            <path
               inkscape:connector-curvature="0"
               id="path887"
               style="fill:none;stroke:#ff0000;stroke-width:1;stroke-linecap:round;stroke-linejoin:round;stroke-miterlimit:10;stroke-dasharray:none;stroke-opacity:1"
               d="m 58.16,231.877 37.32,-0.004 37.321,-0.019 37.316,-0.059 37.321,-0.176 37.32,-0.523 37.32,-1.57 37.32,-4.711 37.317,-14.133 37.32,-42.395 37.32,-127.195" />
            <path
               inkscape:connector-curvature="0"
               id="path889"
               style="fill:none;stroke:#0000ff;stroke-width:1;stroke-linecap:round;stroke-linejoin:round;stroke-miterlimit:10;stroke-dasharray:none;stroke-opacity:1"
               d="m 58.16,231.877 h 1.867 1.864 1.867 1.867 1.863 1.867 1.868 l 1.867,-0.004 h 1.863 1.867 1.868 1.863 l 1.867,-0.004 h 1.867 1.863 1.868 1.867 l 1.863,-0.004 h 1.867 1.867 l 1.864,-0.003 h 1.867 1.867 l 1.867,-0.004 h 1.864 1.867 l 1.867,-0.004 h 1.863 l 1.867,-0.004 h 1.868 l 1.863,-0.004 h 1.867 l 1.867,-0.004 h 1.864 l 1.867,-0.004 1.867,-0.004 h 1.867 l 1.863,-0.004 1.868,-0.004 1.867,-0.004 1.863,-0.003 h 1.867 l 1.867,-0.004 1.864,-0.004 1.867,-0.004 1.867,-0.004 1.863,-0.008 1.868,-0.004 1.867,-0.004 1.863,-0.004 1.867,-0.007 1.867,-0.004 1.868,-0.008 1.863,-0.004 1.867,-0.008 1.867,-0.008 1.864,-0.007 1.867,-0.008 1.867,-0.008 1.863,-0.008 1.867,-0.008 1.868,-0.011 1.863,-0.008 1.867,-0.012 1.867,-0.008 1.867,-0.012 1.864,-0.015 1.867,-0.012 1.867,-0.012 1.863,-0.015 1.868,-0.012 1.867,-0.016 1.863,-0.019 1.867,-0.016 1.867,-0.019 1.864,-0.016 1.867,-0.023 1.867,-0.02 1.863,-0.019 1.868,-0.024 1.867,-0.027 1.867,-0.024 1.863,-0.027 1.867,-0.027 1.868,-0.032 1.863,-0.031 1.867,-0.031 1.867,-0.035 1.863,-0.035 1.868,-0.039 1.867,-0.039 1.863,-0.043 1.867,-0.043 1.868,-0.047 1.867,-0.051 1.863,-0.051 1.867,-0.055 1.867,-0.054 1.864,-0.059 1.867,-0.062 1.867,-0.067 1.863,-0.07 1.867,-0.074 1.868,-0.074 1.863,-0.082 1.867,-0.086 1.867,-0.086 1.864,-0.094 1.867,-0.098 1.867,-0.105 1.867,-0.11 1.863,-0.113 1.868,-0.121 1.867,-0.125 1.863,-0.133 1.867,-0.14 1.867,-0.145 1.864,-0.156 1.867,-0.16 1.867,-0.172 1.863,-0.18 1.868,-0.187 1.867,-0.2 1.863,-0.207 1.867,-0.218 1.867,-0.231 1.868,-0.242 1.863,-0.254 1.867,-0.266 1.867,-0.281 1.864,-0.297 1.867,-0.308 1.867,-0.328 1.863,-0.344 1.867,-0.36 1.868,-0.378 1.863,-0.399 1.867,-0.422 1.867,-0.437 1.867,-0.465 1.864,-0.488 1.867,-0.512 1.867,-0.539 1.863,-0.563 1.868,-0.597 1.867,-0.625 1.863,-0.657 1.867,-0.691 1.867,-0.727 1.864,-0.765 1.867,-0.801 1.867,-0.844 1.863,-0.886 1.868,-0.934 1.867,-0.981 1.867,-1.031 1.863,-1.086 1.867,-1.14 1.868,-1.196 1.863,-1.261 1.867,-1.321 1.867,-1.394 1.864,-1.461 1.867,-1.539 1.867,-1.617 1.863,-1.7 1.867,-1.789 1.868,-1.879 1.867,-1.972 1.863,-2.078 1.867,-2.184 1.867,-2.293 1.864,-2.414 1.867,-2.535 1.867,-2.664 1.863,-2.805 1.868,-2.945 1.867,-3.098 1.863,-3.258 1.867,-3.422 1.867,-3.597 1.864,-3.785 1.867,-3.977 1.867,-4.18 1.867,-4.394 1.863,-4.621 1.868,-4.86 1.867,-5.105 1.863,-5.371 1.867,-5.641 1.868,-5.933 1.863,-6.239 1.867,-6.558 1.867,-6.895 1.863,-7.246 1.868,-7.617 1.867,-8.008 1.867,-8.422 1.863,-8.851 1.867,-9.305" />
          </g>
        </g>
      </g>
      <g
         id="g891">
        <g
           clip-path="url(#clipPath897)"
           id="g893">
          <path
             inkscape:connector-curvature="0"
             id="path899"
             style="fill:#ffffff;fill-opacity:1;fill-rule:nonzero;stroke:none"
             d="m 296.02,93.096 h 99.086 V 60.01 H 296.02 Z" />
        </g>
      </g>
      <g
         id="g901">
        <g
           clip-path="url(#clipPath907)"
           id="g903">
          <g
             clip-path="url(#clipPath913)"
             id="g909">
            <path
               inkscape:connector-curvature="0"
               id="path915"
               style="fill:none;stroke:#ff0000;stroke-width:1;stroke-linecap:round;stroke-linejoin:round;stroke-miterlimit:10;stroke-dasharray:none;stroke-opacity:1"
               d="m 300.563,82.803 h 35" />
            <text
               id="text919"
               style="font-variant:normal;font-weight:normal;font-size:9px;font-family:Georgia;-inkscape-font-specification:Georgia;writing-mode:lr-tb;fill:#000000;fill-opacity:1;fill-rule:nonzero;stroke:none"
               transform="matrix(1,0,0,-1,340.5625,80.052934)">
              <tspan
                 id="tspan917"
                 sodipodi:role="line"
                 y="0"
                 x="0 7.0019999 11.988 15.993 20.988001 25.983 31.976999 35.964001 41.958 43.956001">Galerkin u</tspan>
            </text>
            <path
               inkscape:connector-curvature="0"
               id="path921"
               style="fill:none;stroke:#0000ff;stroke-width:1;stroke-linecap:round;stroke-linejoin:round;stroke-miterlimit:10;stroke-dasharray:none;stroke-opacity:1"
               d="m 300.563,70.303 h 35" />
            <text
               id="text925"
               style="font-variant:normal;font-weight:normal;font-size:9px;font-family:Georgia;-inkscape-font-specification:Georgia;writing-mode:lr-tb;fill:#000000;fill-opacity:1;fill-rule:nonzero;stroke:none"
               transform="matrix(1,0,0,-1,340.5625,67.552934)">
              <tspan
                 id="tspan923"
                 sodipodi:role="line"
                 y="0"
                 x="0 5.994 11.988 16.983 21.978001 25.974001 30.969 32.966999">Exacta u</tspan>
            </text>
          </g>
        </g>
      </g>
      <g
         id="g927">
        <g
           clip-path="url(#clipPath933)"
           id="g929">
          <text
             id="text937"
             style="font-variant:normal;font-weight:normal;font-size:12px;font-family:Georgia;-inkscape-font-specification:GeorgiaBold;writing-mode:lr-tb;fill:#000000;fill-opacity:1;fill-rule:nonzero;stroke:none"
             transform="matrix(1,0,0,-1,145.40234,275.64668)">
            <tspan
               id="tspan935"
               sodipodi:role="line"
               y="0"
               x="0 7.9920001 14.976 19.98 28.968 34.967999 39.959999 46.944 55.944 61.919998 70.907997 78.912003 87.900002 91.907997 97.896004 100.884 107.88 115.872 125.00001 128.996 134.98401 137.98401 145.976 152.972 157.964 163.964 171.95601 179.948">Solucion h=0.1 e=0.1 delta=0</tspan>
          </text>
        </g>
      </g>
      <g
         id="g939" />
    </g>
    <g
       transform="matrix(0.20774512,0,0,-0.20774512,-131.61946,-27.831621)"
       inkscape:label="MG_h01_e1"
       id="g1008">
      <g
         id="g1010" />
      <g
         id="g1012">
        <g
           clip-path="url(#clipPath1018)"
           id="g1014">
          <path
             inkscape:connector-curvature="0"
             id="path1020"
             style="fill:#ffffff;fill-opacity:1;fill-rule:nonzero;stroke:none"
             d="M -36.703,286.677 H 422.098 V 0.001 H -36.703 Z" />
          <path
             inkscape:connector-curvature="0"
             id="path1022"
             style="fill:none;stroke:#848284;stroke-width:1;stroke-linecap:round;stroke-linejoin:round;stroke-miterlimit:10;stroke-dasharray:none;stroke-opacity:1"
             d="M 55.055,263.743 H 408.332 V 40.134 H 55.055 Z" />
          <path
             inkscape:connector-curvature="0"
             id="path1024"
             style="fill:none;stroke:#808080;stroke-width:0.40000001;stroke-linecap:round;stroke-linejoin:round;stroke-miterlimit:10;stroke-dasharray:none;stroke-opacity:1"
             d="M 55.055,40.134 H 408.332 M 55.055,77.403 H 408.332 M 55.055,114.669 H 408.332 M 55.055,151.938 H 408.332 M 55.055,189.208 H 408.332 M 55.055,226.474 H 408.332 M 55.055,263.743 h 353.277" />
          <path
             inkscape:connector-curvature="0"
             id="path1026"
             style="fill:none;stroke:#808080;stroke-width:0.5;stroke-linecap:round;stroke-linejoin:round;stroke-miterlimit:10;stroke-dasharray:none;stroke-opacity:1"
             d="M 55.055,263.743 V 40.134 m 70.656,223.609 V 40.134 m 70.656,223.609 V 40.134 m 70.656,223.609 V 40.134 M 337.68,263.743 V 40.134 m 70.652,223.609 V 40.134" />
          <path
             inkscape:connector-curvature="0"
             id="path1028"
             style="fill:none;stroke:#000000;stroke-width:1.10000002;stroke-linecap:round;stroke-linejoin:round;stroke-miterlimit:10;stroke-dasharray:none;stroke-opacity:1"
             d="M 55.055,40.134 H 408.332 M 55.055,35.583 v 4.551 m 70.656,-4.551 v 4.551 m 70.656,-4.551 v 4.551 m 70.656,-4.551 v 4.551 m 70.657,-4.551 v 4.551 m 70.652,-4.551 v 4.551" />
          <text
             id="text1034"
             style="font-variant:normal;font-weight:normal;font-size:12px;font-family:Georgia;-inkscape-font-specification:Georgia;writing-mode:lr-tb;fill:#000000;fill-opacity:1;fill-rule:nonzero;stroke:none"
             transform="matrix(1,0,0,-1,45.824219,23.582917)">
            <tspan
               id="tspan1030"
               sodipodi:role="line"
               y="0"
               x="0 7.3559999 10.584 70.956001 78.311996 81.540001 141.60156 148.95757 152.18556 212.22156 219.57756 222.80556 282.72656 290.08255 293.31058 354.36658 359.51456 362.74255">0,00,20,40,60,81,0</tspan>
            <tspan
               id="tspan1032"
               y="14.949216"
               x="180.69141">X</tspan>
          </text>
          <path
             inkscape:connector-curvature="0"
             id="path1036"
             style="fill:none;stroke:#000000;stroke-width:1.10000002;stroke-linecap:round;stroke-linejoin:round;stroke-miterlimit:10;stroke-dasharray:none;stroke-opacity:1"
             d="M 55.055,40.134 V 263.743 M 50.508,40.134 h 4.547 m -4.547,37.269 h 4.547 m -4.547,37.266 h 4.547 m -4.547,37.269 h 4.547 m -4.547,37.27 h 4.547 m -4.547,37.266 h 4.547 m -4.547,37.269 h 4.547" />
          <text
             id="text1052"
             style="font-variant:normal;font-weight:normal;font-size:12px;font-family:Georgia;-inkscape-font-specification:Georgia;writing-mode:lr-tb;fill:#000000;fill-opacity:1;fill-rule:nonzero;stroke:none"
             transform="matrix(1,0,0,-1,28.109375,35.883698)">
            <tspan
               id="tspan1038"
               sodipodi:role="line"
               y="0"
               x="0 7.3559999 10.584">0,0</tspan>
            <tspan
               id="tspan1040"
               sodipodi:role="line"
               y="-37.269527"
               x="0.66015601 8.0161562 11.244156">0,2</tspan>
            <tspan
               id="tspan1042"
               sodipodi:role="line"
               y="-74.535156"
               x="0.5859372 7.941937 11.169937">0,4</tspan>
            <tspan
               id="tspan1044"
               sodipodi:role="line"
               y="-111.80468"
               x="0.57421845 7.9302187 11.158218">0,6</tspan>
            <tspan
               id="tspan1046"
               sodipodi:role="line"
               y="-149.0742"
               x="0.21093766 7.5669374 10.794938">0,8</tspan>
            <tspan
               id="tspan1048"
               sodipodi:role="line"
               y="-186.33984"
               x="2.2070296 7.3550296 10.58303">1,0</tspan>
            <tspan
               id="tspan1050"
               sodipodi:role="line"
               y="-223.60938"
               x="2.8710916 8.0190916 11.247091">1,2</tspan>
          </text>
          <text
             id="text1056"
             style="font-variant:normal;font-weight:normal;font-size:12px;font-family:Georgia;-inkscape-font-specification:Georgia;writing-mode:lr-tb;fill:#000000;fill-opacity:1;fill-rule:nonzero;stroke:none"
             transform="matrix(0,1,1,0,20.898437,138.65323)">
            <tspan
               id="tspan1054"
               sodipodi:role="line"
               y="0"
               x="0 6.9000001 11.4 17.448">u(x)</tspan>
          </text>
        </g>
      </g>
      <g
         id="g1058">
        <g
           clip-path="url(#clipPath1064)"
           id="g1060">
          <g
             clip-path="url(#clipPath1070)"
             id="g1066">
            <path
               inkscape:connector-curvature="0"
               id="path1072"
               style="fill:none;stroke:#ff0000;stroke-width:1;stroke-linecap:round;stroke-linejoin:round;stroke-miterlimit:10;stroke-dasharray:none;stroke-opacity:1"
               d="m 55.055,226.474 35.328,-11.399 35.328,-12.601 35.328,-13.926 35.328,-15.395 35.328,-17.011 35.328,-18.805 35.329,-20.781 35.328,-22.973 35.324,-25.387 35.328,-28.062" />
          </g>
        </g>
      </g>
      <g
         id="g1074">
        <g
           clip-path="url(#clipPath1080)"
           id="g1076">
          <g
             transform="matrix(1,0,0,-1,0,286.67667)"
             id="g1082">
            <path
               inkscape:connector-curvature="0"
               id="path1084"
               style="fill:#0000ff;fill-opacity:1;fill-rule:nonzero;stroke:#0000ff;stroke-width:0.30000001;stroke-linecap:square;stroke-linejoin:miter;stroke-miterlimit:10;stroke-dasharray:none;stroke-opacity:1"
               d="m 53.555,58.703 v 3 h 3 v -3 z" />
          </g>
          <g
             transform="matrix(1,0,0,-1,0,286.67667)"
             id="g1086">
            <path
               inkscape:connector-curvature="0"
               id="path1088"
               style="fill:#0000ff;fill-opacity:1;fill-rule:nonzero;stroke:#0000ff;stroke-width:0.30000001;stroke-linecap:square;stroke-linejoin:miter;stroke-miterlimit:10;stroke-dasharray:none;stroke-opacity:1"
               d="m 71.219,64.262 v 3 h 3 v -3 z" />
          </g>
          <g
             transform="matrix(1,0,0,-1,0,286.67667)"
             id="g1090">
            <path
               inkscape:connector-curvature="0"
               id="path1092"
               style="fill:#0000ff;fill-opacity:1;fill-rule:nonzero;stroke:#0000ff;stroke-width:0.30000001;stroke-linecap:square;stroke-linejoin:miter;stroke-miterlimit:10;stroke-dasharray:none;stroke-opacity:1"
               d="m 88.883,70.105 v 3 h 3 v -3 z" />
          </g>
          <g
             transform="matrix(1,0,0,-1,0,286.67667)"
             id="g1094">
            <path
               inkscape:connector-curvature="0"
               id="path1096"
               style="fill:#0000ff;fill-opacity:1;fill-rule:nonzero;stroke:#0000ff;stroke-width:0.30000001;stroke-linecap:square;stroke-linejoin:miter;stroke-miterlimit:10;stroke-dasharray:none;stroke-opacity:1"
               d="m 106.547,76.254 v 3 h 3 v -3 z" />
          </g>
          <g
             transform="matrix(1,0,0,-1,0,286.67667)"
             id="g1098">
            <path
               inkscape:connector-curvature="0"
               id="path1100"
               style="fill:#0000ff;fill-opacity:1;fill-rule:nonzero;stroke:#0000ff;stroke-width:0.30000001;stroke-linecap:square;stroke-linejoin:miter;stroke-miterlimit:10;stroke-dasharray:none;stroke-opacity:1"
               d="m 124.211,82.711 v 3 h 3 v -3 z" />
          </g>
          <g
             transform="matrix(1,0,0,-1,0,286.67667)"
             id="g1102">
            <path
               inkscape:connector-curvature="0"
               id="path1104"
               style="fill:#0000ff;fill-opacity:1;fill-rule:nonzero;stroke:#0000ff;stroke-width:0.30000001;stroke-linecap:square;stroke-linejoin:miter;stroke-miterlimit:10;stroke-dasharray:none;stroke-opacity:1"
               d="m 141.875,89.504 v 3 h 3 v -3 z" />
          </g>
          <g
             transform="matrix(1,0,0,-1,0,286.67667)"
             id="g1106">
            <path
               inkscape:connector-curvature="0"
               id="path1108"
               style="fill:#0000ff;fill-opacity:1;fill-rule:nonzero;stroke:#0000ff;stroke-width:0.30000001;stroke-linecap:square;stroke-linejoin:miter;stroke-miterlimit:10;stroke-dasharray:none;stroke-opacity:1"
               d="m 159.539,96.645 v 3 h 3 v -3 z" />
          </g>
          <g
             transform="matrix(1,0,0,-1,0,286.67667)"
             id="g1110">
            <path
               inkscape:connector-curvature="0"
               id="path1112"
               style="fill:#0000ff;fill-opacity:1;fill-rule:nonzero;stroke:#0000ff;stroke-width:0.30000001;stroke-linecap:square;stroke-linejoin:miter;stroke-miterlimit:10;stroke-dasharray:none;stroke-opacity:1"
               d="m 177.203,104.148 v 3 h 3 v -3 z" />
          </g>
          <g
             transform="matrix(1,0,0,-1,0,286.67667)"
             id="g1114">
            <path
               inkscape:connector-curvature="0"
               id="path1116"
               style="fill:#0000ff;fill-opacity:1;fill-rule:nonzero;stroke:#0000ff;stroke-width:0.30000001;stroke-linecap:square;stroke-linejoin:miter;stroke-miterlimit:10;stroke-dasharray:none;stroke-opacity:1"
               d="m 194.867,112.039 v 3 h 3 v -3 z" />
          </g>
          <g
             transform="matrix(1,0,0,-1,0,286.67667)"
             id="g1118">
            <path
               inkscape:connector-curvature="0"
               id="path1120"
               style="fill:#0000ff;fill-opacity:1;fill-rule:nonzero;stroke:#0000ff;stroke-width:0.30000001;stroke-linecap:square;stroke-linejoin:miter;stroke-miterlimit:10;stroke-dasharray:none;stroke-opacity:1"
               d="m 212.531,120.332 v 3 h 3 v -3 z" />
          </g>
          <g
             transform="matrix(1,0,0,-1,0,286.67667)"
             id="g1122">
            <path
               inkscape:connector-curvature="0"
               id="path1124"
               style="fill:#0000ff;fill-opacity:1;fill-rule:nonzero;stroke:#0000ff;stroke-width:0.30000001;stroke-linecap:square;stroke-linejoin:miter;stroke-miterlimit:10;stroke-dasharray:none;stroke-opacity:1"
               d="m 230.195,129.055 v 3 h 3 v -3 z" />
          </g>
          <g
             transform="matrix(1,0,0,-1,0,286.67667)"
             id="g1126">
            <path
               inkscape:connector-curvature="0"
               id="path1128"
               style="fill:#0000ff;fill-opacity:1;fill-rule:nonzero;stroke:#0000ff;stroke-width:0.30000001;stroke-linecap:square;stroke-linejoin:miter;stroke-miterlimit:10;stroke-dasharray:none;stroke-opacity:1"
               d="m 247.859,138.219 v 3 h 3 v -3 z" />
          </g>
          <g
             transform="matrix(1,0,0,-1,0,286.67667)"
             id="g1130">
            <path
               inkscape:connector-curvature="0"
               id="path1132"
               style="fill:#0000ff;fill-opacity:1;fill-rule:nonzero;stroke:#0000ff;stroke-width:0.30000001;stroke-linecap:square;stroke-linejoin:miter;stroke-miterlimit:10;stroke-dasharray:none;stroke-opacity:1"
               d="m 265.523,147.855 v 3 h 3 v -3 z" />
          </g>
          <g
             transform="matrix(1,0,0,-1,0,286.67667)"
             id="g1134">
            <path
               inkscape:connector-curvature="0"
               id="path1136"
               style="fill:#0000ff;fill-opacity:1;fill-rule:nonzero;stroke:#0000ff;stroke-width:0.30000001;stroke-linecap:square;stroke-linejoin:miter;stroke-miterlimit:10;stroke-dasharray:none;stroke-opacity:1"
               d="m 283.188,157.988 v 3 h 3 v -3 z" />
          </g>
          <g
             transform="matrix(1,0,0,-1,0,286.67667)"
             id="g1138">
            <path
               inkscape:connector-curvature="0"
               id="path1140"
               style="fill:#0000ff;fill-opacity:1;fill-rule:nonzero;stroke:#0000ff;stroke-width:0.30000001;stroke-linecap:square;stroke-linejoin:miter;stroke-miterlimit:10;stroke-dasharray:none;stroke-opacity:1"
               d="m 300.852,168.641 v 3 h 3 v -3 z" />
          </g>
          <g
             transform="matrix(1,0,0,-1,0,286.67667)"
             id="g1142">
            <path
               inkscape:connector-curvature="0"
               id="path1144"
               style="fill:#0000ff;fill-opacity:1;fill-rule:nonzero;stroke:#0000ff;stroke-width:0.30000001;stroke-linecap:square;stroke-linejoin:miter;stroke-miterlimit:10;stroke-dasharray:none;stroke-opacity:1"
               d="m 318.516,179.836 v 3 h 3 v -3 z" />
          </g>
          <g
             transform="matrix(1,0,0,-1,0,286.67667)"
             id="g1146">
            <path
               inkscape:connector-curvature="0"
               id="path1148"
               style="fill:#0000ff;fill-opacity:1;fill-rule:nonzero;stroke:#0000ff;stroke-width:0.30000001;stroke-linecap:square;stroke-linejoin:miter;stroke-miterlimit:10;stroke-dasharray:none;stroke-opacity:1"
               d="m 336.18,191.605 v 3 h 3 v -3 z" />
          </g>
          <g
             transform="matrix(1,0,0,-1,0,286.67667)"
             id="g1150">
            <path
               inkscape:connector-curvature="0"
               id="path1152"
               style="fill:#0000ff;fill-opacity:1;fill-rule:nonzero;stroke:#0000ff;stroke-width:0.30000001;stroke-linecap:square;stroke-linejoin:miter;stroke-miterlimit:10;stroke-dasharray:none;stroke-opacity:1"
               d="m 353.84,203.98 v 3 h 3 v -3 z" />
          </g>
          <g
             transform="matrix(1,0,0,-1,0,286.67667)"
             id="g1154">
            <path
               inkscape:connector-curvature="0"
               id="path1156"
               style="fill:#0000ff;fill-opacity:1;fill-rule:nonzero;stroke:#0000ff;stroke-width:0.30000001;stroke-linecap:square;stroke-linejoin:miter;stroke-miterlimit:10;stroke-dasharray:none;stroke-opacity:1"
               d="m 371.504,216.988 v 3 h 3 v -3 z" />
          </g>
          <g
             transform="matrix(1,0,0,-1,0,286.67667)"
             id="g1158">
            <path
               inkscape:connector-curvature="0"
               id="path1160"
               style="fill:#0000ff;fill-opacity:1;fill-rule:nonzero;stroke:#0000ff;stroke-width:0.30000001;stroke-linecap:square;stroke-linejoin:miter;stroke-miterlimit:10;stroke-dasharray:none;stroke-opacity:1"
               d="m 389.168,230.664 v 3 h 3 v -3 z" />
          </g>
          <g
             transform="matrix(1,0,0,-1,0,286.67667)"
             id="g1162">
            <path
               inkscape:connector-curvature="0"
               id="path1164"
               style="fill:#0000ff;fill-opacity:1;fill-rule:nonzero;stroke:#0000ff;stroke-width:0.30000001;stroke-linecap:square;stroke-linejoin:miter;stroke-miterlimit:10;stroke-dasharray:none;stroke-opacity:1"
               d="m 406.832,245.043 v 3 h 3 v -3 z" />
          </g>
          <path
             inkscape:connector-curvature="0"
             id="path1166"
             style="fill:#ffffff;fill-opacity:1;fill-rule:nonzero;stroke:none"
             d="m 298.164,255.333 h 99.086 v -33.09 h -99.086 z" />
        </g>
      </g>
      <g
         id="g1168">
        <g
           clip-path="url(#clipPath1174)"
           id="g1170">
          <g
             clip-path="url(#clipPath1180)"
             id="g1176">
            <path
               inkscape:connector-curvature="0"
               id="path1182"
               style="fill:none;stroke:#ff0000;stroke-width:1;stroke-linecap:round;stroke-linejoin:miter;stroke-miterlimit:10;stroke-dasharray:none;stroke-opacity:1"
               d="m 302.707,245.04 h 35" />
            <text
               id="text1186"
               style="font-variant:normal;font-weight:normal;font-size:9px;font-family:Georgia;-inkscape-font-specification:Georgia;writing-mode:lr-tb;fill:#000000;fill-opacity:1;fill-rule:nonzero;stroke:none"
               transform="matrix(1,0,0,-1,342.70703,242.28995)">
              <tspan
                 id="tspan1184"
                 sodipodi:role="line"
                 y="0"
                 x="0 7.0019999 11.988 15.993 20.988001 25.983 31.976999 35.964001 41.958 43.956001">Galerkin u</tspan>
            </text>
            <g
               transform="matrix(1,0,0,-1,0,286.67667)"
               id="g1188">
              <path
                 inkscape:connector-curvature="0"
                 id="path1190"
                 style="fill:#0000ff;fill-opacity:1;fill-rule:nonzero;stroke:#0000ff;stroke-width:0.30000001;stroke-linecap:square;stroke-linejoin:miter;stroke-miterlimit:10;stroke-dasharray:none;stroke-opacity:1"
                 d="m 318.707,52.637 v 3 h 3 v -3 z" />
            </g>
            <text
               id="text1194"
               style="font-variant:normal;font-weight:normal;font-size:9px;font-family:Georgia;-inkscape-font-specification:Georgia;writing-mode:lr-tb;fill:#000000;fill-opacity:1;fill-rule:nonzero;stroke:none"
               transform="matrix(1,0,0,-1,342.70703,229.78995)">
              <tspan
                 id="tspan1192"
                 sodipodi:role="line"
                 y="0"
                 x="0 5.994 11.988 16.983 21.978001 25.974001 30.969 32.966999">Exacta u</tspan>
            </text>
          </g>
        </g>
      </g>
      <g
         id="g1196">
        <g
           clip-path="url(#clipPath1202)"
           id="g1198">
          <text
             id="text1206"
             style="font-variant:normal;font-weight:normal;font-size:12px;font-family:Georgia;-inkscape-font-specification:GeorgiaBold;writing-mode:lr-tb;fill:#000000;fill-opacity:1;fill-rule:nonzero;stroke:none"
             transform="matrix(1,0,0,-1,137.64062,268.94229)">
            <tspan
               id="tspan1204"
               sodipodi:role="line"
               y="0"
               x="0 7.9920001 14.976 19.98 28.968 34.967999 39.959999 46.944 55.944 61.919998 70.907997 78.912003 87.900002 91.907997 97.896004 100.884 107.88 115.872 122.00001 124.98801 132.992 139.976 144.98001 150.968 158.96001 166.964">Solucion h=0.1 e=1 delta=0</tspan>
          </text>
        </g>
      </g>
      <g
         id="g1208" />
    </g>
    <g
       transform="matrix(0.20484949,0,0,-0.19875748,-220.11108,-86.631408)"
       inkscape:label="MG_h01_e001"
       id="g1507">
      <g
         id="g1509" />
      <g
         id="g1511">
        <g
           clip-path="url(#clipPath1517)"
           id="g1513">
          <path
             inkscape:connector-curvature="0"
             id="path1519"
             style="fill:#ffffff;fill-opacity:1;fill-rule:nonzero;stroke:none"
             d="M -38.883,323.32 H 447.148 V 0 H -38.883 Z" />
          <path
             inkscape:connector-curvature="0"
             id="path1521"
             style="fill:none;stroke:#848284;stroke-width:1;stroke-linecap:round;stroke-linejoin:round;stroke-miterlimit:10;stroke-dasharray:none;stroke-opacity:1"
             d="M 58.324,297.453 H 432.566 V 45.265 H 58.324 Z" />
          <path
             inkscape:connector-curvature="0"
             id="path1523"
             style="fill:none;stroke:#808080;stroke-width:0.40000001;stroke-linecap:round;stroke-linejoin:round;stroke-miterlimit:10;stroke-dasharray:none;stroke-opacity:1"
             d="M 58.324,45.265 H 432.566 M 58.324,108.312 H 432.566 M 58.324,171.359 H 432.566 M 58.324,234.406 H 432.566 M 58.324,297.453 h 374.242" />
          <path
             inkscape:connector-curvature="0"
             id="path1525"
             style="fill:none;stroke:#808080;stroke-width:0.5;stroke-linecap:round;stroke-linejoin:round;stroke-miterlimit:10;stroke-dasharray:none;stroke-opacity:1"
             d="M 58.324,297.453 V 45.265 m 74.848,252.188 V 45.265 M 208.02,297.453 V 45.265 m 74.851,252.188 V 45.265 m 74.848,252.188 V 45.265 m 74.847,252.188 V 45.265" />
          <path
             inkscape:connector-curvature="0"
             id="path1527"
             style="fill:none;stroke:#000000;stroke-width:1.10000002;stroke-linecap:round;stroke-linejoin:round;stroke-miterlimit:10;stroke-dasharray:none;stroke-opacity:1"
             d="M 58.324,45.265 H 432.566 M 58.324,40.715 v 4.55 m 74.848,-4.55 v 4.55 m 74.848,-4.55 v 4.55 m 74.851,-4.55 v 4.55 m 74.848,-4.55 v 4.55 m 74.847,-4.55 v 4.55" />
          <text
             id="text1533"
             style="font-variant:normal;font-weight:normal;font-size:12px;font-family:Georgia;-inkscape-font-specification:Georgia;writing-mode:lr-tb;fill:#000000;fill-opacity:1;fill-rule:nonzero;stroke:none"
             transform="matrix(1,0,0,-1,49.089844,28.714531)">
            <tspan
               id="tspan1529"
               sodipodi:role="line"
               y="0"
               x="0 7.3559999 10.584 75.155998 82.512001 85.739998 149.99219 157.34819 160.57619 224.81219 232.16818 235.39619 299.5 306.85599 310.08398 375.328 380.47598 383.70401">0,00,20,40,60,81,0</tspan>
            <tspan
               id="tspan1531"
               y="14.949216"
               x="191.38672">X</tspan>
          </text>
          <path
             inkscape:connector-curvature="0"
             id="path1535"
             style="fill:none;stroke:#000000;stroke-width:1.10000002;stroke-linecap:round;stroke-linejoin:round;stroke-miterlimit:10;stroke-dasharray:none;stroke-opacity:1"
             d="M 58.324,45.265 V 297.453 M 53.773,45.265 h 4.551 m -4.551,63.047 h 4.551 m -4.551,63.047 h 4.551 m -4.551,63.047 h 4.551 m -4.551,63.047 h 4.551" />
          <text
             id="text1547"
             style="font-variant:normal;font-weight:normal;font-size:12px;font-family:Georgia;-inkscape-font-specification:Georgia;writing-mode:lr-tb;fill:#000000;fill-opacity:1;fill-rule:nonzero;stroke:none"
             transform="matrix(1,0,0,-1,31.375,41.015312)">
            <tspan
               id="tspan1537"
               sodipodi:role="line"
               y="0"
               x="0 7.3559999 10.584">0,0</tspan>
            <tspan
               id="tspan1539"
               sodipodi:role="line"
               y="-63.046871"
               x="1.027344 8.3833437 11.611344">0,5</tspan>
            <tspan
               id="tspan1541"
               sodipodi:role="line"
               y="-126.09374"
               x="2.2109375 7.3589377 10.586938">1,0</tspan>
            <tspan
               id="tspan1543"
               sodipodi:role="line"
               y="-189.14062"
               x="3.2343757 8.3823757 11.610375">1,5</tspan>
            <tspan
               id="tspan1545"
               sodipodi:role="line"
               y="-252.18748"
               x="0.66405958 7.3600597 10.588059">2,0</tspan>
          </text>
          <text
             id="text1551"
             style="font-variant:normal;font-weight:normal;font-size:12px;font-family:Georgia;-inkscape-font-specification:Georgia;writing-mode:lr-tb;fill:#000000;fill-opacity:1;fill-rule:nonzero;stroke:none"
             transform="matrix(0,1,1,0,23.328125,159.78875)">
            <tspan
               id="tspan1549"
               sodipodi:role="line"
               y="0"
               x="0 6.9000001 11.4 17.448">u(x)</tspan>
          </text>
        </g>
      </g>
      <g
         id="g1553">
        <g
           clip-path="url(#clipPath1559)"
           id="g1555">
          <g
             clip-path="url(#clipPath1565)"
             id="g1561">
            <path
               inkscape:connector-curvature="0"
               id="path1567"
               style="fill:none;stroke:#ff0000;stroke-width:1;stroke-linecap:round;stroke-linejoin:round;stroke-miterlimit:10;stroke-dasharray:none;stroke-opacity:1"
               d="m 58.324,171.359 37.422,5.563 37.426,-8.344 37.426,12.515 37.422,-18.773 37.425,28.164 37.426,-42.246 37.422,63.367 37.426,-95.051 37.422,142.578 37.425,-213.867" />
            <path
               inkscape:connector-curvature="0"
               id="path1569"
               style="fill:none;stroke:#0000ff;stroke-width:1;stroke-linecap:round;stroke-linejoin:round;stroke-miterlimit:10;stroke-dasharray:none;stroke-opacity:1"
               d="m 58.324,171.359 h 0.188 0.187 0.188 0.183 0.188 0.187 0.188 0.187 0.188 0.187 0.188 0.187 0.188 0.183 0.188 0.187 0.188 0.187 0.188 0.187 0.188 0.187 0.188 0.187 0.184 0.188 0.187 0.188 0.187 0.188 0.187 0.188 0.187 0.188 0.183 0.188 0.187 0.188 0.187 0.188 0.187 0.188 0.187 0.188 0.183 0.188 0.187 0.188 0.187 0.188 0.187 0.188 0.187 0.188 0.187 0.184 0.187 0.188 0.187 0.188 0.187 0.188 0.187 0.188 0.187 0.184 0.187 0.188 0.187 0.188 0.187 0.188 0.187 0.188 0.187 0.184 0.187 0.188 0.187 0.188 0.187 0.188 0.187 0.188 0.187 0.188 0.184 0.187 0.188 0.187 0.188 0.187 0.188 0.187 0.188 0.187 0.184 0.187 0.188 0.187 0.188 0.187 0.188 0.187 0.188 0.187 0.184 0.187 0.188 0.187 0.188 0.187 0.188 0.187 0.188 0.187 0.188 0.183 0.188 0.187 0.188 0.187 0.188 0.187 0.188 0.187 0.188 0.183 0.188 0.187 0.188 0.187 0.188 0.187 0.188 0.187 0.188 0.184 0.187 0.188 0.187 0.188 0.187 0.188 0.187 0.188 0.187 0.188 0.183 0.188 0.187 0.188 0.187 0.188 0.187 0.188 0.187 0.188 0.183 0.188 0.187 0.188 0.187 0.188 0.187 0.188 0.187 0.188 0.183 0.188 0.187 0.188 0.187 0.188 0.187 0.188 0.187 0.188 0.183 0.188 0.187 0.188 0.187 0.188 0.187 0.188 0.187 0.188 0.187 0.184 0.188 0.187 0.188 0.187 0.188 0.187 0.188 0.187 0.188 0.183 0.188 0.187 0.188 0.187 0.188 0.187 0.188 0.187 0.188 0.183 0.188 0.187 0.188 0.187 0.188 0.187 0.188 0.187 0.188 0.187 0.184 0.187 0.188 0.187 0.188 0.187 0.188 0.187 0.188 0.187 0.184 0.187 0.188 0.187 0.188 0.187 0.188 0.187 0.188 0.187 0.184 0.187 0.188 0.187 0.188 0.187 0.188 0.187 0.188 0.187 0.188 0.184 0.187 0.188 0.187 0.188 0.187 0.188 0.187 0.188 0.187 0.184 0.187 0.188 0.187 0.188 0.187 0.188 0.187 0.188 0.187 0.184 0.187 0.188 0.187 0.188 0.187 0.188 0.187 0.188 0.187 0.188 0.183 0.188 0.187 0.188 0.187 0.188 0.187 0.188 0.187 0.188 0.183 0.188 0.187 0.188 0.187 0.188 0.187 0.188 0.187 0.188 0.184 0.187 0.188 0.187 0.188 0.187 0.188 0.187 0.188 0.187 0.188 0.183 0.188 0.187 0.188 0.187 0.188 0.187 0.188 0.187 0.188 0.183 0.188 0.187 0.188 0.187 0.188 0.187 0.188 0.187 0.188 0.183 0.188 0.187 0.188 0.187 0.188 0.187 0.188 0.187 0.188 0.187 0.184 0.187 0.188 0.187 0.188 0.187 0.188 0.187 0.188 0.187 0.184 0.188 0.187 0.188 0.187 0.188 0.187 0.188 0.187 0.188 0.183 0.188 0.187 0.188 0.187 0.188 0.187 0.188 0.187 0.188 0.187 0.184 0.187 0.188 0.187 0.188 0.187 0.188 0.187 0.188 0.187 0.184 0.187 0.188 0.187 0.188 0.187 0.188 0.187 0.188 0.187 0.184 0.187 0.188 0.187 0.188 0.187 0.188 0.187 0.188 0.187 0.188 0.183 0.188 0.187 0.188 0.187 0.188 0.187 0.188 0.187 0.188 0.184 0.187 0.188 0.187 0.188 0.187 0.188 0.187 0.188 0.187 0.184 0.187 0.188 0.187 0.188 0.187 0.188 0.187 0.188 0.187 0.188 0.183 0.188 0.187 0.188 0.187 0.188 0.187 0.188 0.187 0.188 0.183 0.188 0.187 0.188 0.187 0.188 0.187 0.188 0.187 0.188 0.183 0.188 0.187 0.188 0.187 0.188 0.187 0.188 0.187 0.188 0.187 0.184 0.188 0.187 0.188 0.187 0.188 0.187 0.188 0.187 0.188 0.183 0.188 0.187 0.188 0.187 0.188 0.187 0.188 0.187 0.188 0.183 0.188 0.187 0.188 0.187 0.188 0.187 0.188 0.187 0.188 0.183 0.188 0.187 0.188 0.187 0.188 0.187 0.188 0.187 0.188 0.187 0.184 0.187 0.188 0.187 0.188 0.187 0.188 0.187 0.188 0.187 0.184 0.188 0.187 0.188 0.187 0.188 0.187 0.188 0.187 0.188 0.183 0.188 0.187 0.188 0.187 0.188 0.187 0.188 0.187 0.188 0.187 0.184 0.187 0.188 0.187 0.188 0.187 0.188 0.187 0.188 0.187 0.184 0.187 0.188 0.187 0.188 0.187 0.188 0.187 0.188 0.187 0.184 0.187 0.188 0.187 0.188 0.187 0.188 0.187 0.188 0.187 0.188 0.183 0.188 0.187 0.188 0.187 0.188 0.187 0.188 0.187 0.188 0.184 0.187 0.188 0.187 0.188 0.187 0.188 0.187 0.188 0.187 0.184 0.187 0.188 0.187 0.188 0.187 0.188 0.187 0.188 0.187 0.188 0.183 0.188 0.187 0.188 0.187 0.188 0.187 0.188 0.187 0.188 0.183 0.188 0.187 0.188 0.187 0.188 0.187 0.188 0.187 0.188 0.183 0.188 0.187 0.188 0.187 0.188 0.187 0.188 0.187 0.188 0.187 0.184 0.188 0.187 0.188 0.187 0.188 0.187 0.188 0.187 0.188 0.183 0.188 0.187 0.188 0.187 0.188 0.187 0.188 0.187 0.188 0.183 0.188 0.187 0.188 0.187 0.188 0.187 0.188 0.187 0.188 0.187 0.184 0.187 0.188 0.187 0.188 0.187 0.188 0.187 0.188 0.187 0.184 0.187 0.188 0.187 0.188 0.187 0.188 0.187 0.188 0.187 0.184 0.188 0.187 0.188 0.187 0.188 0.187 0.188 0.187 0.188 0.187 0.184 0.187 0.188 0.187 0.188 0.187 0.188 0.187 0.188 0.187 0.184 0.187 0.188 0.187 0.188 0.187 0.188 0.187 0.188 0.187 0.184 0.187 0.188 0.187 0.188 0.187 0.188 0.187 0.188 0.187 0.188 0.183 0.188 0.187 0.188 0.187 0.188 0.187 0.188 0.187 0.188 0.183 0.188 0.187 0.188 0.187 0.188 0.187 0.188 0.187 0.188 0.184 0.187 0.188 0.187 0.188 0.187 0.188 0.187 0.188 0.187 0.188 0.183 0.188 0.187 0.188 0.187 0.188 0.187 0.188 0.187 0.188 0.183 0.188 0.187 0.188 0.187 0.188 0.187 0.188 0.187 0.188 0.183 0.188 0.187 0.188 0.187 0.188 0.187 0.188 0.187 0.188 0.183 0.188 0.187 0.188 0.187 0.188 0.187 0.188 0.187 0.188 0.187 0.184 0.188 0.187 0.188 0.187 0.188 0.187 0.188 0.187 0.188 0.183 0.188 0.187 0.188 0.187 0.188 0.187 0.188 0.187 0.188 0.183 0.188 0.187 0.188 0.187 0.188 0.187 0.188 0.187 0.188 0.187 0.184 0.187 0.188 0.187 0.188 0.187 0.188 0.187 0.188 0.187 0.184 0.187 0.188 0.187 0.188 0.187 0.188 0.187 0.188 0.187 0.184 0.188 0.187 0.188 0.187 0.188 0.187 0.188 0.187 0.188 0.187 0.184 0.187 0.188 0.187 0.188 0.187 0.188 0.187 0.188 0.187 0.184 0.187 0.188 0.187 0.188 0.187 0.188 0.187 0.188 0.187 0.184 0.187 0.188 0.187 0.188 0.187 0.188 0.187 0.188 0.187 0.188 0.183 0.188 0.187 0.188 0.187 0.188 0.187 0.188 0.187 0.188 0.183 0.188 0.187 0.188 0.187 0.188 0.187 0.188 0.187 0.188 0.184 0.187 0.188 0.187 0.188 0.187 0.188 0.187 0.188 0.187 0.188 0.183 0.188 0.187 0.188 0.187 0.188 0.187 0.188 0.187 0.188 0.183 0.188 0.187 0.188 0.187 0.188 0.187 0.188 0.187 0.188 0.183 0.188 0.187 0.188 0.187 0.188 0.187 0.188 0.187 0.188 0.187 0.184 0.187 0.188 0.187 0.188 0.187 0.188 0.187 0.188 0.187 0.184 0.188 0.187 0.188 0.187 0.188 0.187 0.188 0.187 0.188 0.183 0.188 0.187 0.188 0.187 0.188 0.187 0.188 0.187 0.188 0.187 0.184 0.187 0.188 0.187 0.188 0.187 0.188 0.187 0.188 0.187 0.184 0.187 0.188 0.187 0.188 0.187 0.188 0.187 0.188 0.187 0.184 0.187 0.188 0.187 0.188 0.187 0.188 0.187 0.188 0.187 0.188 0.184 0.187 0.188 0.187 0.188 0.187 0.188 0.187 0.188 0.187 0.184 0.187 0.188 0.187 0.188 0.187 0.188 0.187 0.188 0.187 0.184 0.187 0.188 0.187 0.188 0.187 0.188 0.187 0.188 0.187 0.188 0.183 0.188 0.187 0.188 0.187 0.188 0.187 0.188 0.187 0.188 0.183 0.188 0.187 0.188 0.187 0.188 0.187 0.188 0.187 0.188 0.183 0.188 0.187 0.188 0.187 0.188 0.187 0.188 0.187 0.188 0.184 0.187 0.188 0.187 0.188 0.187 0.188 0.187 0.188 0.187 0.188 0.183 0.188 0.187 0.188 0.187 0.188 0.187 0.188 0.187 0.188 0.183 0.188 0.187 0.188 0.187 0.188 0.187 0.188 0.187 0.188 0.183 0.188 0.187 0.188 0.187 0.188 0.187 0.188 0.187 0.188 0.187 0.184 0.187 0.188 0.187 0.188 0.187 0.188 0.187 0.188 0.187 0.184 0.188 0.187 0.188 0.187 0.188 0.187 0.188 0.187 0.188 0.183 0.188 0.187 0.188 0.187 0.188 0.187 0.188 0.187 0.188 0.187 0.184 0.187 0.188 0.187 0.188 0.187 0.188 0.187 0.188 0.187 0.184 0.187 0.188 0.187 0.188 0.187 0.188 0.187 0.188 0.187 0.184 0.187 0.188 0.187 0.188 0.187 0.188 0.187 0.188 0.187 0.188 0.184 0.187 0.188 0.187 0.188 0.187 0.188 0.187 0.188 0.187 0.184 0.187 0.188 0.187 0.188 0.187 0.188 0.187 0.188 0.187 0.184 0.187 0.188 0.187 0.188 0.187 0.188 0.187 0.188 0.187 0.188 0.183 0.188 0.187 0.188 0.187 0.188 0.187 0.188 0.187 0.188 0.183 0.188 0.187 0.188 0.187 0.188 0.187 0.188 0.187 0.188 0.183 0.188 0.187 0.188 0.187 0.188 0.187 0.188 0.187 0.188 0.187 0.184 0.188 0.187 0.188 0.187 0.188 0.187 0.188 0.187 0.188 0.183 0.188 0.187 0.188 0.187 0.188 0.187 0.188 0.187 0.188 0.183 0.188 0.187 0.188 0.187 0.188 0.187 0.188 0.187 0.188 0.187 0.184 0.187 0.188 0.187 0.188 0.187 0.188 0.187 0.188 0.187 0.184 0.187 0.188 0.187 0.188 0.187 0.188 0.187 0.188 0.187 0.184 0.188 0.187 0.188 0.187 0.188 0.187 0.188 0.187 0.188 0.187 0.184 0.187 0.188 0.187 0.188 0.187 0.188 0.187 0.188 0.187 0.184 0.187 0.188 0.187 0.188 0.187 0.188 0.187 0.188 0.187 0.184 0.187 0.188 0.187 0.188 0.187 0.188 0.187 0.188 0.187 0.188 0.183 0.188 0.187 0.188 0.187 0.188 0.187 0.188 0.187 0.188 0.184 0.187 0.188 0.187 0.188 0.187 0.188 0.187 0.188 0.187 0.184 0.187 0.188 0.187 0.188 0.187 0.188 0.187 0.188 0.187 0.184 0.187 0.188 0.187 0.188 0.187 0.188 0.187 0.188 0.187 0.188 0.183 0.188 0.187 0.188 0.187 0.188 0.187 0.188 0.187 0.188 0.183 0.188 0.187 0.188 0.187 0.188 0.187 0.188 0.187 0.188 0.183 0.188 0.187 0.188 0.187 0.188 0.187 0.188 0.187 0.188 0.187 0.184 0.188 0.187 0.188 0.187 0.188 0.187 0.188 0.187 0.188 0.183 0.188 0.187 0.188 0.187 0.188 0.187 0.188 0.187 0.188 0.183 0.188 0.187 0.188 0.187 0.188 0.187 0.188 0.187 0.188 0.187 0.184 0.187 0.188 0.187 0.188 0.187 0.188 0.187 0.188 0.187 0.184 0.187 0.188 0.187 0.188 0.187 0.188 0.187 0.188 0.187 0.184 0.188 0.187 0.188 0.187 0.188 0.187 0.188 0.187 0.188 0.187 0.184 0.187 0.188 0.187 0.188 0.187 0.188 0.187 0.188 0.187 0.184 0.187 0.188 0.187 0.188 0.187 0.188 0.187 0.188 0.187 0.184 0.187 0.188 0.187 0.188 0.187 0.188 0.187 0.188 0.187 0.188 0.183 0.188 0.187 0.188 0.187 0.188 0.187 0.188 0.187 0.188 0.184 0.187 0.188 0.187 0.188 0.187 0.188 0.187 0.188 0.187 0.184 0.187 0.188 0.187 0.188 0.187 0.188 0.187 0.188 0.187 0.188 0.183 0.188 0.187 0.188 0.187 0.188 0.187 0.188 0.187 0.188 0.183 0.188 0.187 0.188 0.187 0.188 0.187 0.188 0.187 0.188 0.183 0.188 0.187 0.188 0.187 0.188 0.187 0.188 0.187 0.188 0.187 0.184 0.187 0.188 0.187 0.188 0.187 0.188 0.187 0.188 0.187 0.184 0.188 0.187 0.188 0.187 0.188 0.187 0.188 0.187 0.188 0.183 0.188 0.187 0.188 0.187 0.188 0.187 0.188 0.187 0.188 0.187 0.184 0.187 0.188 0.187 0.188 0.187 0.188 0.187 0.188 0.187 0.184 0.187 0.188 0.187 0.188 0.187 0.188 0.187 0.188 0.187 0.184 0.187 0.188 0.187 0.188 0.187 0.188 0.187 0.188 0.187 0.188 0.184 0.187 0.188 0.187 0.188 0.187 0.188 0.187 0.188 0.187 0.184 0.187 0.188 0.187 0.188 0.187 0.188 0.187 0.188 0.187 0.184 0.187 0.188 0.187 0.188 0.187 0.188 0.187 0.188 0.187 0.184 0.187 0.188 0.187 0.188 0.187 0.188 0.187 0.188 0.187 0.188 0.183 0.188 0.187 0.188 0.187 0.188 0.187 0.188 0.187 0.188 0.184 0.187 0.188 0.187 0.188 0.187 0.188 0.187 0.188 0.187 0.184 0.187 0.188 0.187 0.188 0.187 0.188 0.187 0.188 0.187 0.188 0.183 0.188 0.187 0.188 0.187 0.188 0.187 0.188 0.187 0.188 0.183 0.188 0.187 0.188 0.187 0.188 0.187 0.188 0.187 0.188 0.183 0.188 0.187 0.188 0.187 0.188 0.187 0.188 0.187 0.188 0.187 0.184 0.187 0.188 0.187 0.188 0.187 0.188 0.187 0.188 0.187 0.184 0.188 0.187 0.188 0.187 0.188 0.187 0.188 0.187 0.188 0.183 0.188 0.187 0.188 0.187 0.188 0.187 0.188 0.187 0.188 0.187 0.184 0.187 0.188 0.187 0.188 0.187 0.188 0.187 0.188 0.187 0.184 0.187 0.188 0.187 0.188 0.187 0.188 0.187 0.188 0.187 0.184 0.187 0.188 0.187 0.188 l 0.187,-0.004 h 0.188 0.187 0.188 0.187 0.188 0.184 0.187 0.188 0.187 0.188 0.187 0.188 0.187 0.188 0.187 0.184 0.187 0.188 l 0.187,-0.004 h 0.188 0.187 0.188 0.187 0.188 0.187 0.184 0.187 l 0.188,-0.004 h 0.187 0.188 0.187 0.188 0.187 0.188 l 0.187,-0.004 h 0.188 0.183 0.188 0.187 l 0.188,-0.003 h 0.187 0.188 l 0.187,-0.004 h 0.188 0.187 0.188 l 0.183,-0.004 h 0.188 0.187 l 0.188,-0.004 h 0.187 l 0.188,-0.004 h 0.187 l 0.188,-0.004 h 0.187 l 0.188,-0.004 h 0.184 L 403,171.312 h 0.188 l 0.187,-0.004 0.188,-0.004 h 0.187 l 0.188,-0.004 0.187,-0.003 0.188,-0.004 0.187,-0.004 0.188,-0.004 0.183,-0.004 0.188,-0.004 0.187,-0.004 0.188,-0.004 0.187,-0.004 0.188,-0.004 0.187,-0.004 0.188,-0.007 0.187,-0.004 0.188,-0.008 0.183,-0.004 0.188,-0.008 0.187,-0.008 0.188,-0.007 0.187,-0.008 0.188,-0.008 0.187,-0.008 0.188,-0.008 0.187,-0.007 0.188,-0.012 0.183,-0.008 0.188,-0.012 0.187,-0.011 0.188,-0.012 0.187,-0.012 0.188,-0.015 0.187,-0.012 0.188,-0.016 0.187,-0.015 0.188,-0.016 0.187,-0.016 0.184,-0.019 0.187,-0.02 0.188,-0.019 0.187,-0.02 0.188,-0.019 0.187,-0.024 0.188,-0.023 0.187,-0.028 0.188,-0.027 0.187,-0.027 0.184,-0.028 0.187,-0.031 0.188,-0.031 0.187,-0.035 0.188,-0.035 0.187,-0.039 0.188,-0.04 0.187,-0.039 0.188,-0.046 0.187,-0.043 0.184,-0.051 0.188,-0.051 0.187,-0.051 0.188,-0.054 0.187,-0.063 0.188,-0.059 0.187,-0.066 0.188,-0.066 0.187,-0.075 0.188,-0.074 0.187,-0.078 0.184,-0.086 0.187,-0.086 0.188,-0.094 0.187,-0.097 0.188,-0.102 0.187,-0.105 0.188,-0.114 0.187,-0.117 0.188,-0.125 0.187,-0.133 0.184,-0.136 0.187,-0.145 0.188,-0.152 0.187,-0.16 0.188,-0.168 0.187,-0.176 0.188,-0.188 0.187,-0.195 0.188,-0.203 0.187,-0.215 0.184,-0.226 0.187,-0.243 0.188,-0.25 0.187,-0.261 0.188,-0.278 0.187,-0.293 0.188,-0.304 0.187,-0.321 0.188,-0.339 0.187,-0.356 0.188,-0.375 0.183,-0.391 0.188,-0.414 0.187,-0.437 0.188,-0.453 0.187,-0.481 0.188,-0.508 0.187,-0.527 0.188,-0.558 0.187,-0.586 0.188,-0.618 0.184,-0.648 0.187,-0.684 0.188,-0.714 0.187,-0.754 0.188,-0.789 0.187,-0.836 0.188,-0.875 0.187,-0.918 0.188,-0.969 0.187,-1.016 0.184,-1.066 0.187,-1.125 0.188,-1.18 0.187,-1.242 0.188,-1.305 0.187,-1.375 0.188,-1.441 0.187,-1.516 0.188,-1.593 0.187,-1.676 0.184,-1.762 0.187,-1.852 0.188,-1.949 0.187,-2.047 0.188,-2.152 0.187,-2.262 0.188,-2.379 0.187,-2.5 0.188,-2.628 0.187,-2.762 0.188,-2.906 0.183,-3.055 0.188,-3.211 0.187,-3.375 0.188,-3.547 0.187,-3.73 0.188,-3.922 0.187,-4.121 0.188,-4.332 0.187,-4.559 0.188,-4.789 0.183,-5.035 0.188,-5.293 0.187,-5.563 0.188,-5.851 0.187,-6.149" />
          </g>
        </g>
      </g>
      <g
         id="g1571">
        <g
           clip-path="url(#clipPath1577)"
           id="g1573">
          <path
             inkscape:connector-curvature="0"
             id="path1579"
             style="fill:#ffffff;fill-opacity:1;fill-rule:nonzero;stroke:none"
             d="m 296.855,102.394 h 99.086 V 69.308 h -99.086 z" />
        </g>
      </g>
      <g
         id="g1581">
        <g
           clip-path="url(#clipPath1587)"
           id="g1583">
          <g
             clip-path="url(#clipPath1593)"
             id="g1589">
            <path
               inkscape:connector-curvature="0"
               id="path1595"
               style="fill:none;stroke:#ff0000;stroke-width:1;stroke-linecap:round;stroke-linejoin:round;stroke-miterlimit:10;stroke-dasharray:none;stroke-opacity:1"
               d="m 301.398,92.101 h 35" />
            <text
               id="text1599"
               style="font-variant:normal;font-weight:normal;font-size:9px;font-family:Georgia;-inkscape-font-specification:Georgia;writing-mode:lr-tb;fill:#000000;fill-opacity:1;fill-rule:nonzero;stroke:none"
               transform="matrix(1,0,0,-1,341.39844,89.35125)">
              <tspan
                 id="tspan1597"
                 sodipodi:role="line"
                 y="0"
                 x="0 7.0019999 11.988 15.993 20.988001 25.983 31.976999 35.964001 41.958 43.956001">Galerkin u</tspan>
            </text>
            <path
               inkscape:connector-curvature="0"
               id="path1601"
               style="fill:none;stroke:#0000ff;stroke-width:1;stroke-linecap:round;stroke-linejoin:round;stroke-miterlimit:10;stroke-dasharray:none;stroke-opacity:1"
               d="m 301.398,79.601 h 35" />
            <text
               id="text1605"
               style="font-variant:normal;font-weight:normal;font-size:9px;font-family:Georgia;-inkscape-font-specification:Georgia;writing-mode:lr-tb;fill:#000000;fill-opacity:1;fill-rule:nonzero;stroke:none"
               transform="matrix(1,0,0,-1,341.39844,76.85125)">
              <tspan
                 id="tspan1603"
                 sodipodi:role="line"
                 y="0"
                 x="0 5.994 11.988 16.983 21.978001 25.974001 30.969 32.966999">Exacta u</tspan>
            </text>
          </g>
        </g>
      </g>
      <g
         id="g1607">
        <g
           clip-path="url(#clipPath1613)"
           id="g1609">
          <text
             id="text1617"
             style="font-variant:normal;font-weight:normal;font-size:12px;font-family:Georgia;-inkscape-font-specification:GeorgiaBold;writing-mode:lr-tb;fill:#000000;fill-opacity:1;fill-rule:nonzero;stroke:none"
             transform="matrix(1,0,0,-1,145.80859,304.85516)">
            <tspan
               id="tspan1615"
               sodipodi:role="line"
               y="0"
               x="0 7.9920001 14.976 19.98 28.968 34.967999 39.959999 46.944 55.944 61.919998 70.907997 78.912003 87.900002 91.907997 97.896004 100.884 107.88 115.872 125.00001 128.996 137.996 143.98401 146.972 154.976 161.972 166.964 172.95201 180.944 188.948">Solucion h=0.1 e=0.01 delta=0</tspan>
          </text>
        </g>
      </g>
      <g
         id="g1619" />
    </g>
    <g
       transform="matrix(0.19547102,0,0,-0.19547102,-130.72215,-85.572878)"
       inkscape:label="MG_h01_e003"
       id="g1686">
      <g
         id="g1688" />
      <g
         id="g1690">
        <g
           clip-path="url(#clipPath1696)"
           id="g1692">
          <path
             inkscape:connector-curvature="0"
             id="path1698"
             style="fill:#ffffff;fill-opacity:1;fill-rule:nonzero;stroke:none"
             d="M -37.465,331.587 H 430.863 V 0.001 H -37.465 Z" />
          <path
             inkscape:connector-curvature="0"
             id="path1700"
             style="fill:none;stroke:#848284;stroke-width:1;stroke-linecap:round;stroke-linejoin:round;stroke-miterlimit:10;stroke-dasharray:none;stroke-opacity:1"
             d="M 56.199,305.059 H 416.816 V 46.422 H 56.199 Z" />
          <path
             inkscape:connector-curvature="0"
             id="path1702"
             style="fill:none;stroke:#808080;stroke-width:0.40000001;stroke-linecap:round;stroke-linejoin:round;stroke-miterlimit:10;stroke-dasharray:none;stroke-opacity:1"
             d="M 56.199,46.423 H 416.816 M 56.199,83.372 H 416.816 M 56.199,120.317 H 416.816 M 56.199,157.266 H 416.816 M 56.199,194.216 H 416.816 M 56.199,231.165 H 416.816 M 56.199,268.11 H 416.816 M 56.199,305.059 h 360.617" />
          <path
             inkscape:connector-curvature="0"
             id="path1704"
             style="fill:none;stroke:#808080;stroke-width:0.5;stroke-linecap:round;stroke-linejoin:round;stroke-miterlimit:10;stroke-dasharray:none;stroke-opacity:1"
             d="M 56.199,305.059 V 46.423 m 72.125,258.636 V 46.423 m 72.121,258.636 V 46.423 M 272.57,305.059 V 46.423 m 72.121,258.636 V 46.423 m 72.125,258.636 V 46.423" />
          <path
             inkscape:connector-curvature="0"
             id="path1706"
             style="fill:none;stroke:#000000;stroke-width:1.10000002;stroke-linecap:round;stroke-linejoin:round;stroke-miterlimit:10;stroke-dasharray:none;stroke-opacity:1"
             d="M 56.199,46.423 H 416.816 M 56.199,41.872 v 4.551 m 72.125,-4.551 v 4.551 m 72.121,-4.551 v 4.551 m 72.125,-4.551 v 4.551 m 72.121,-4.551 v 4.551 m 72.125,-4.551 v 4.551" />
          <text
             id="text1712"
             style="font-variant:normal;font-weight:normal;font-size:12px;font-family:Georgia;-inkscape-font-specification:Georgia;writing-mode:lr-tb;fill:#000000;fill-opacity:1;fill-rule:nonzero;stroke:none"
             transform="matrix(1,0,0,-1,46.96875,29.871823)">
            <tspan
               id="tspan1708"
               sodipodi:role="line"
               y="0"
               x="0 7.3559999 10.584 72.431999 79.788002 83.015999 144.53906 151.89507 155.12306 216.63507 223.99106 227.21907 288.59766 295.95367 299.18167 361.70166 366.84967 370.07767">0,00,20,40,60,81,0</tspan>
            <tspan
               id="tspan1710"
               y="14.949216"
               x="184.43359">X</tspan>
          </text>
          <path
             inkscape:connector-curvature="0"
             id="path1714"
             style="fill:none;stroke:#000000;stroke-width:1.10000002;stroke-linecap:round;stroke-linejoin:round;stroke-miterlimit:10;stroke-dasharray:none;stroke-opacity:1"
             d="M 56.199,46.423 V 305.059 M 51.648,46.423 h 4.551 m -4.551,36.949 h 4.551 m -4.551,36.945 h 4.551 m -4.551,36.949 h 4.551 m -4.551,36.95 h 4.551 m -4.551,36.949 h 4.551 m -4.551,36.945 h 4.551 m -4.551,36.949 h 4.551" />
          <text
             id="text1732"
             style="font-variant:normal;font-weight:normal;font-size:12px;font-family:Georgia;-inkscape-font-specification:Georgia;writing-mode:lr-tb;fill:#000000;fill-opacity:1;fill-rule:nonzero;stroke:none"
             transform="matrix(1,0,0,-1,29.253906,42.172604)">
            <tspan
               id="tspan1716"
               sodipodi:role="line"
               y="0"
               x="0 7.3559999 10.584">0,0</tspan>
            <tspan
               id="tspan1718"
               sodipodi:role="line"
               y="-36.949223"
               x="0.66015601 8.0161562 11.244156">0,2</tspan>
            <tspan
               id="tspan1720"
               sodipodi:role="line"
               y="-73.894539"
               x="0.5859372 7.941937 11.169937">0,4</tspan>
            <tspan
               id="tspan1722"
               sodipodi:role="line"
               y="-110.84376"
               x="0.57421845 7.9302182 11.158218">0,6</tspan>
            <tspan
               id="tspan1724"
               sodipodi:role="line"
               y="-147.79298"
               x="0.21093763 7.5669374 10.794938">0,8</tspan>
            <tspan
               id="tspan1726"
               sodipodi:role="line"
               y="-184.7422"
               x="2.2070296 7.3550296 10.58303">1,0</tspan>
            <tspan
               id="tspan1728"
               sodipodi:role="line"
               y="-221.68752"
               x="2.8710916 8.0190916 11.247091">1,2</tspan>
            <tspan
               id="tspan1730"
               sodipodi:role="line"
               y="-258.63675"
               x="2.7929666 7.9409666 11.168966">1,4</tspan>
          </text>
          <text
             id="text1736"
             style="font-variant:normal;font-weight:normal;font-size:12px;font-family:Georgia;-inkscape-font-specification:Georgia;writing-mode:lr-tb;fill:#000000;fill-opacity:1;fill-rule:nonzero;stroke:none"
             transform="matrix(0,1,1,0,21.75,164.55932)">
            <tspan
               id="tspan1734"
               sodipodi:role="line"
               y="0"
               x="0 6.9000001 11.4 17.448">u(x)</tspan>
          </text>
        </g>
      </g>
      <g
         id="g1738">
        <g
           clip-path="url(#clipPath1744)"
           id="g1740">
          <g
             clip-path="url(#clipPath1750)"
             id="g1746">
            <path
               inkscape:connector-curvature="0"
               id="path1752"
               style="fill:none;stroke:#ff0000;stroke-width:1;stroke-linecap:round;stroke-linejoin:round;stroke-miterlimit:10;stroke-dasharray:none;stroke-opacity:1"
               d="m 56.199,231.165 h 36.063 l 36.062,-0.004 36.059,0.016 36.062,-0.059 36.063,0.226 36.062,-0.902 36.059,3.61 36.062,-14.434 36.063,57.73 36.062,-230.925" />
            <path
               inkscape:connector-curvature="0"
               id="path1754"
               style="fill:none;stroke:#0000ff;stroke-width:1;stroke-linecap:round;stroke-linejoin:round;stroke-miterlimit:10;stroke-dasharray:none;stroke-opacity:1"
               d="m 56.199,231.165 h 0.543 0.539 0.543 0.539 0.543 0.539 0.539 0.543 0.539 0.543 0.539 0.543 0.539 0.543 0.54 0.542 0.54 0.543 0.539 0.543 0.539 0.543 0.539 0.543 0.539 0.543 0.539 0.539 0.543 0.539 0.543 0.539 0.543 0.539 0.543 0.539 0.543 0.539 0.543 0.539 0.543 0.539 0.543 0.539 0.543 0.539 0.543 0.539 0.539 0.543 0.539 0.543 0.539 0.543 0.539 0.543 0.539 0.543 0.539 0.543 0.539 0.543 0.539 0.543 0.539 0.543 0.539 0.543 0.539 0.54 0.542 0.54 0.543 0.539 0.543 0.539 0.543 0.539 0.543 0.539 0.543 0.539 0.543 0.539 0.543 0.539 0.543 0.539 0.543 0.539 0.539 0.543 0.539 0.543 0.539 0.543 0.539 0.543 0.539 0.543 0.539 0.543 0.539 0.543 0.539 0.543 0.539 0.543 0.539 0.543 0.539 0.539 0.543 0.539 0.543 0.539 0.543 0.539 0.543 0.539 0.543 0.539 0.543 0.539 0.543 0.539 0.543 0.54 0.542 0.54 0.543 0.539 0.539 0.543 0.539 0.543 0.539 0.543 0.539 0.543 0.539 0.543 0.539 0.543 0.539 0.543 0.539 0.543 0.539 0.543 0.539 0.543 0.539 0.539 0.543 0.539 0.543 0.539 0.543 0.539 0.543 0.539 0.543 0.539 0.543 0.539 0.543 0.539 0.543 0.539 0.543 0.539 0.543 0.539 0.539 0.543 0.539 0.543 0.539 0.543 0.539 0.543 0.54 0.542 0.54 0.543 0.539 0.543 0.539 0.543 0.539 0.543 0.539 0.543 0.539 0.539 0.543 0.539 0.543 0.539 0.543 0.539 0.543 0.539 0.543 0.539 0.543 0.539 0.543 0.539 0.543 0.539 0.543 0.539 0.543 0.539 0.539 0.543 0.539 0.543 0.539 0.543 0.539 0.543 0.539 0.543 0.539 0.543 0.539 0.543 0.539 0.543 0.539 0.543 0.539 0.543 0.539 0.54 0.542 0.54 0.543 0.539 0.543 0.539 0.543 0.539 0.543 0.539 0.543 0.539 0.543 0.539 0.543 0.539 0.543 0.539 0.543 0.539 0.539 0.543 0.539 0.543 0.539 0.543 0.539 0.543 0.539 0.543 0.539 0.543 0.539 0.543 0.539 0.543 0.539 0.543 0.539 0.543 0.539 0.539 0.543 0.539 0.543 0.539 0.543 0.539 0.543 0.539 0.543 0.539 0.543 0.539 0.543 0.539 0.543 0.54 0.542 0.54 0.543 0.539 0.539 0.543 0.539 0.543 0.539 0.543 0.539 0.543 0.539 0.543 0.539 0.543 0.539 0.543 0.539 0.543 0.539 0.543 0.539 0.543 0.539 0.539 0.543 0.539 0.543 0.539 0.543 0.539 0.543 0.539 0.543 0.539 0.543 0.539 0.543 0.539 0.543 0.539 0.543 0.539 0.543 0.539 0.539 0.543 0.539 0.543 0.539 0.543 0.539 0.543 0.54 0.542 0.54 0.543 0.539 0.543 0.539 0.543 0.539 0.543 0.539 0.543 0.539 0.539 0.543 0.539 0.543 0.539 0.543 0.539 0.543 0.539 0.543 0.539 0.543 0.539 0.543 0.539 0.543 0.539 0.543 0.539 0.543 0.539 0.539 0.543 0.539 0.543 0.539 0.543 0.539 0.543 0.539 0.543 0.539 0.543 0.539 0.543 0.539 0.543 0.539 0.543 0.539 0.543 0.539 0.54 0.542 l 0.54,-0.004 h 0.543 0.539 0.543 0.539 0.543 0.539 0.543 0.539 0.543 0.539 0.543 0.539 0.543 0.539 0.543 0.539 0.543 0.539 0.539 0.543 0.539 0.543 0.539 0.543 0.539 0.543 0.539 0.543 0.539 0.543 0.539 0.543 0.539 0.543 0.539 0.543 0.539 0.543 0.539 0.539 0.543 0.539 0.543 0.539 0.543 l 0.539,-0.004 h 0.543 0.539 0.543 0.539 0.543 0.539 0.543 0.539 0.543 0.54 0.542 0.54 l 0.543,-0.004 h 0.539 0.539 0.543 0.539 0.543 0.539 0.543 l 0.539,-0.004 h 0.543 0.539 0.543 0.539 l 0.543,-0.004 h 0.539 0.543 0.539 0.543 l 0.539,-0.004 h 0.543 0.539 l 0.543,-0.004 h 0.539 0.539 l 0.543,-0.003 h 0.539 0.543 l 0.539,-0.004 h 0.543 l 0.539,-0.004 h 0.543 l 0.539,-0.004 h 0.543 l 0.539,-0.004 h 0.543 l 0.539,-0.004 0.543,-0.004 h 0.539 l 0.543,-0.004 0.539,-0.004 0.543,-0.004 h 0.539 l 0.543,-0.004 0.539,-0.003 0.539,-0.004 0.543,-0.004 0.539,-0.004 0.543,-0.004 0.539,-0.004 0.543,-0.008 0.539,-0.004 0.543,-0.004 0.54,-0.007 0.542,-0.004 0.54,-0.008 0.543,-0.008 0.539,-0.004 0.543,-0.008 0.539,-0.007 0.543,-0.008 0.539,-0.008 0.543,-0.008 0.539,-0.012 0.543,-0.007 0.539,-0.012 0.539,-0.012 0.543,-0.012 0.539,-0.011 0.543,-0.012 0.539,-0.012 0.543,-0.015 0.539,-0.012 0.543,-0.016 0.539,-0.015 0.543,-0.02 0.539,-0.015 0.543,-0.02 0.539,-0.02 0.543,-0.019 0.539,-0.024 0.543,-0.023 0.539,-0.023 0.543,-0.024 0.539,-0.027 0.543,-0.028 0.539,-0.027 0.543,-0.031 0.539,-0.035 0.539,-0.032 0.543,-0.035 0.539,-0.039 0.543,-0.039 0.539,-0.043 0.543,-0.043 0.539,-0.043 0.543,-0.05 0.539,-0.051 0.543,-0.051 0.539,-0.059 0.543,-0.058 0.539,-0.059 0.543,-0.066 0.539,-0.067 0.543,-0.074 0.539,-0.074 0.543,-0.078 0.539,-0.086 0.543,-0.086 0.539,-0.094 0.54,-0.097 0.543,-0.102 0.539,-0.106 0.543,-0.113 0.539,-0.117 0.543,-0.125 0.539,-0.129 0.543,-0.141 0.539,-0.14 0.543,-0.152 0.539,-0.161 0.543,-0.168 0.539,-0.175 0.543,-0.188 0.539,-0.195 0.543,-0.203 0.539,-0.215 0.543,-0.227 0.539,-0.238 0.543,-0.25 0.539,-0.266 0.539,-0.277 0.543,-0.289 0.539,-0.305 0.543,-0.324 0.539,-0.336 0.543,-0.355 0.539,-0.375 0.543,-0.391 0.539,-0.414 0.543,-0.434 0.539,-0.457 0.543,-0.476 0.539,-0.504 0.543,-0.531 0.539,-0.559 0.543,-0.586 0.539,-0.613 0.543,-0.649 0.539,-0.679 0.543,-0.715 0.539,-0.754 0.539,-0.789 0.543,-0.832 0.539,-0.875 0.543,-0.918 0.539,-0.965 0.543,-1.016 0.539,-1.066 0.543,-1.121 0.539,-1.18 0.543,-1.238 0.539,-1.305 0.543,-1.371 0.539,-1.441 0.543,-1.512 0.54,-1.594 0.542,-1.672 0.54,-1.761 0.543,-1.848 0.539,-1.945 0.543,-2.043 0.539,-2.153 0.539,-2.257 0.543,-2.375 0.539,-2.497 0.543,-2.625 0.539,-2.757 0.543,-2.903 0.539,-3.05 0.543,-3.204 0.539,-3.371 0.543,-3.543 0.539,-3.726 0.543,-3.914 0.539,-4.117 0.543,-4.329 0.539,-4.546 0.543,-4.786 0.539,-5.027 0.543,-5.285 0.539,-5.559 0.543,-5.84 0.539,-6.14 0.539,-6.457 0.543,-6.785 0.539,-7.137 0.543,-7.5 0.539,-7.887 0.543,-8.289 0.539,-8.715" />
          </g>
        </g>
      </g>
      <g
         id="g1756">
        <g
           clip-path="url(#clipPath1762)"
           id="g1758">
          <path
             inkscape:connector-curvature="0"
             id="path1764"
             style="fill:#ffffff;fill-opacity:1;fill-rule:nonzero;stroke:none"
             d="m 285.988,104.973 h 99.086 V 71.887 h -99.086 z" />
        </g>
      </g>
      <g
         id="g1766">
        <g
           clip-path="url(#clipPath1772)"
           id="g1768">
          <g
             clip-path="url(#clipPath1778)"
             id="g1774">
            <path
               inkscape:connector-curvature="0"
               id="path1780"
               style="fill:none;stroke:#ff0000;stroke-width:1;stroke-linecap:round;stroke-linejoin:round;stroke-miterlimit:10;stroke-dasharray:none;stroke-opacity:1"
               d="m 290.531,94.68 h 35" />
            <text
               id="text1784"
               style="font-variant:normal;font-weight:normal;font-size:9px;font-family:Georgia;-inkscape-font-specification:Georgia;writing-mode:lr-tb;fill:#000000;fill-opacity:1;fill-rule:nonzero;stroke:none"
               transform="matrix(1,0,0,-1,330.53125,91.930417)">
              <tspan
                 id="tspan1782"
                 sodipodi:role="line"
                 y="0"
                 x="0 7.0019999 11.988 15.993 20.988001 25.983 31.976999 35.964001 41.958 43.956001">Galerkin u</tspan>
            </text>
            <path
               inkscape:connector-curvature="0"
               id="path1786"
               style="fill:none;stroke:#0000ff;stroke-width:1;stroke-linecap:round;stroke-linejoin:round;stroke-miterlimit:10;stroke-dasharray:none;stroke-opacity:1"
               d="m 290.531,82.18 h 35" />
            <text
               id="text1790"
               style="font-variant:normal;font-weight:normal;font-size:9px;font-family:Georgia;-inkscape-font-specification:Georgia;writing-mode:lr-tb;fill:#000000;fill-opacity:1;fill-rule:nonzero;stroke:none"
               transform="matrix(1,0,0,-1,330.53125,79.430417)">
              <tspan
                 id="tspan1788"
                 sodipodi:role="line"
                 y="0"
                 x="0 5.994 11.988 16.983 21.978001 25.974001 30.969 32.966999">Exacta u</tspan>
            </text>
          </g>
        </g>
      </g>
      <g
         id="g1792">
        <g
           clip-path="url(#clipPath1798)"
           id="g1794">
          <text
             id="text1802"
             style="font-variant:normal;font-weight:normal;font-size:12px;font-family:Georgia;-inkscape-font-specification:GeorgiaBold;writing-mode:lr-tb;fill:#000000;fill-opacity:1;fill-rule:nonzero;stroke:none"
             transform="matrix(1,0,0,-1,140.5,312.95385)">
            <tspan
               id="tspan1800"
               sodipodi:role="line"
               y="0"
               x="0 7.9920001 14.976 19.98 28.968 34.967999 39.959999 46.944 55.944 61.919998 70.907997 78.912003 87.900002 91.907997 97.896004 100.884 107.88 115.872 125.00001 128.996 137.996 145.98801 148.976 156.98001 163.964 168.968 174.95601 182.948 190.95201">Solucion h=0.1 e=0.03 delta=0</tspan>
          </text>
        </g>
      </g>
      <g
         id="g1804" />
    </g>
  </g>
</svg>
